<svg xmlns="http://www.w3.org/2000/svg" viewBox="0 0 100 100">
  <rect width="100" height="100" rx="16" fill="#0db7ed"/>
  <!-- Docker whale simplified -->
  <!-- Containers / stacked boxes -->
  <rect x="20" y="44" width="13" height="11" rx="2" fill="#FFFFFF"/>
  <rect x="35" y="44" width="13" height="11" rx="2" fill="#FFFFFF"/>
  <rect x="50" y="44" width="13" height="11" rx="2" fill="#FFFFFF"/>
  <rect x="35" y="31" width="13" height="11" rx="2" fill="#FFFFFF"/>
  <rect x="50" y="31" width="13" height="11" rx="2" fill="#FFFFFF"/>
  <rect x="50" y="18" width="13" height="11" rx="2" fill="#FFFFFF"/>
  <!-- Whale body -->
  <path d="M14 57 Q14 70 30 68 L75 68 Q88 68 88 57 Q88 52 82 52 L80 52 Q79 45 73 45 L67 45 L67 57 Z" fill="#FFFFFF"/>
  <!-- Eye -->
  <circle cx="74" cy="58" r="2" fill="#0db7ed"/>
  <!-- Water spout -->
  <path d="M82 52 Q85 48 83 43 Q87 46 86 52" fill="#FFFFFF"/>
</svg>
