<svg xmlns="http://www.w3.org/2000/svg" viewBox="0 0 200 200" width="200" height="200">
  <defs>
    <radialGradient id="bg" cx="50%" cy="50%" r="50%">
      <stop offset="0%" stop-color="#1a1a2e"/>
      <stop offset="100%" stop-color="#0d0d1a"/>
    </radialGradient>
  </defs>
  <rect width="200" height="200" fill="url(#bg)" rx="20"/>
  <!-- Java flame / cup -->
  <path d="M 80 140 Q 60 120 70 100 Q 80 80 75 65 Q 90 80 85 95 Q 95 75 100 55 Q 115 80 105 100 Q 120 85 118 68 Q 135 90 125 115 Q 140 105 138 90 Q 150 112 140 135 Q 130 155 100 160 Q 70 158 80 140 Z" fill="#f89820"/>
  <path d="M 82 138 Q 65 120 73 103 Q 82 85 78 72 Q 91 84 88 97 Q 97 79 100 62 Q 113 83 104 102 Q 118 89 116 74 Q 127 94 118 117 Q 132 108 130 95 Q 140 115 132 133 Q 123 150 100 154 Q 78 152 82 138 Z" fill="#f8a030"/>
  <!-- JAVA text -->
  <text x="100" y="185" font-family="Arial Black, sans-serif" font-size="22" font-weight="900" fill="#f89820" text-anchor="middle" letter-spacing="3">JAVA</text>
</svg>
