<svg xmlns="http://www.w3.org/2000/svg" viewBox="0 0 600 400" width="600" height="400">
  <defs>
    <linearGradient id="bg" x1="0%" y1="0%" x2="100%" y2="100%">
      <stop offset="0%" stop-color="#08080f"/>
      <stop offset="100%" stop-color="#100820"/>
    </linearGradient>
    <radialGradient id="glow" cx="50%" cy="50%" r="50%">
      <stop offset="0%" stop-color="#7b5ea7" stop-opacity="0.3"/>
      <stop offset="100%" stop-color="#7b5ea7" stop-opacity="0"/>
    </radialGradient>
  </defs>
  <rect width="600" height="400" fill="url(#bg)"/>
  <circle cx="300" cy="160" r="200" fill="url(#glow)"/>
  <!-- Document icon -->
  <rect x="50" y="60" width="130" height="170" rx="8" fill="#1a1a2e" stroke="#7b5ea7" stroke-width="1.5"/>
  <rect x="50" y="60" width="130" height="32" rx="8" fill="#2a1a4e"/>
  <rect x="50" y="80" width="130" height="12" fill="#2a1a4e"/>
  <text x="115" y="82" font-family="Arial, sans-serif" font-size="9" fill="#9b7ec7" text-anchor="middle">document.pdf</text>
  <!-- Doc lines -->
  <rect x="65" y="105" width="100" height="6" rx="3" fill="#7b5ea7" opacity="0.4"/>
  <rect x="65" y="118" width="90" height="6" rx="3" fill="#7b5ea7" opacity="0.3"/>
  <rect x="65" y="131" width="100" height="6" rx="3" fill="#7b5ea7" opacity="0.4"/>
  <rect x="65" y="144" width="70" height="6" rx="3" fill="#7b5ea7" opacity="0.3"/>
  <rect x="65" y="157" width="95" height="6" rx="3" fill="#7b5ea7" opacity="0.4"/>
  <rect x="65" y="170" width="80" height="6" rx="3" fill="#7b5ea7" opacity="0.3"/>
  <rect x="65" y="183" width="100" height="6" rx="3" fill="#7b5ea7" opacity="0.4"/>
  <rect x="65" y="196" width="55" height="6" rx="3" fill="#7b5ea7" opacity="0.3"/>
  <!-- Arrow / pipeline -->
  <line x1="190" y1="145" x2="230" y2="145" stroke="#00d4ff" stroke-width="2.5" stroke-dasharray="5,3"/>
  <polygon points="230,140 242,145 230,150" fill="#00d4ff"/>
  <!-- AI Brain box -->
  <rect x="248" y="105" width="110" height="80" rx="10" fill="#1a1030" stroke="#00d4ff" stroke-width="1.5"/>
  <text x="303" y="135" font-family="Arial, sans-serif" font-size="11" fill="#00d4ff" text-anchor="middle">RAG Pipeline</text>
  <!-- Neural nodes -->
  <circle cx="278" cy="158" r="5" fill="#00d4ff" opacity="0.8"/>
  <circle cx="303" cy="150" r="5" fill="#7b5ea7" opacity="0.8"/>
  <circle cx="328" cy="158" r="5" fill="#00d4ff" opacity="0.8"/>
  <circle cx="290" cy="172" r="5" fill="#7b5ea7" opacity="0.8"/>
  <circle cx="316" cy="172" r="5" fill="#7b5ea7" opacity="0.8"/>
  <line x1="278" y1="158" x2="303" y2="150" stroke="#00d4ff" stroke-width="1" opacity="0.5"/>
  <line x1="303" y1="150" x2="328" y2="158" stroke="#00d4ff" stroke-width="1" opacity="0.5"/>
  <line x1="278" y1="158" x2="290" y2="172" stroke="#7b5ea7" stroke-width="1" opacity="0.5"/>
  <line x1="328" y1="158" x2="316" y2="172" stroke="#7b5ea7" stroke-width="1" opacity="0.5"/>
  <!-- Arrow out -->
  <line x1="360" y1="145" x2="400" y2="145" stroke="#00d4ff" stroke-width="2.5" stroke-dasharray="5,3"/>
  <polygon points="400,140 412,145 400,150" fill="#00d4ff"/>
  <!-- Draft output -->
  <rect x="418" y="90" width="150" height="200" rx="8" fill="#0d1a0d" stroke="#4ade80" stroke-width="1.5"/>
  <rect x="418" y="90" width="150" height="32" rx="8" fill="#1a2e1a"/>
  <rect x="418" y="110" width="150" height="12" fill="#1a2e1a"/>
  <text x="493" y="112" font-family="Arial, sans-serif" font-size="9" fill="#4ade80" text-anchor="middle">AI Draft Generated</text>
  <rect x="432" y="132" width="122" height="6" rx="3" fill="#4ade80" opacity="0.5"/>
  <rect x="432" y="146" width="110" height="6" rx="3" fill="#4ade80" opacity="0.4"/>
  <rect x="432" y="160" width="122" height="6" rx="3" fill="#4ade80" opacity="0.5"/>
  <rect x="432" y="174" width="90" height="6" rx="3" fill="#4ade80" opacity="0.3"/>
  <rect x="432" y="188" width="115" height="6" rx="3" fill="#4ade80" opacity="0.4"/>
  <rect x="432" y="202" width="80" height="6" rx="3" fill="#4ade80" opacity="0.3"/>
  <!-- Cursor blink -->
  <rect x="432" y="218" width="8" height="14" rx="1" fill="#4ade80" opacity="0.8">
    <animate attributeName="opacity" values="0.8;0;0.8" dur="1.2s" repeatCount="indefinite"/>
  </rect>
  <!-- Labels -->
  <text x="115" y="248" font-family="Arial, sans-serif" font-size="11" fill="#9b7ec7" text-anchor="middle">Input Doc</text>
  <text x="303" y="200" font-family="Arial, sans-serif" font-size="11" fill="#00d4ff" text-anchor="middle">LangChain</text>
  <text x="493" y="302" font-family="Arial, sans-serif" font-size="11" fill="#4ade80" text-anchor="middle">Output Draft</text>
  <!-- Title -->
  <text x="30" y="345" font-family="Arial Black, sans-serif" font-size="32" font-weight="900" fill="white" opacity="0.1">DRAFTER AI</text>
  <text x="30" y="368" font-family="Arial, sans-serif" font-size="14" fill="#00d4ff">GenAI · RAG Pipeline</text>
  <text x="30" y="390" font-family="Arial, sans-serif" font-size="11" fill="#666">Python · LangChain · FastAPI · OpenAI · RAG</text>
</svg>
